<svg width="116" height="18" viewBox="0 0 116 18" fill="none" xmlns="http://www.w3.org/2000/svg">
<path d="M60.4432 17.121C59.5186 17.121 58.7374 16.858 58.0998 16.3319C57.4781 15.8058 57.1672 15.0486 57.1672 14.0603C57.1672 13.311 57.5498 12.6255 58.315 12.0038C59.0802 11.3662 60.2837 10.8879 61.9257 10.5691C62.1807 10.5213 62.4677 10.4735 62.7865 10.4256C63.1053 10.3619 63.4401 10.2981 63.7908 10.2343V8.3453C63.7908 7.26129 63.6553 6.50408 63.3843 6.07366C63.1293 5.62731 62.7228 5.40413 62.1648 5.40413C61.7822 5.40413 61.4793 5.53166 61.2562 5.78672C61.033 6.02584 60.8895 6.44828 60.8257 7.05405L60.7779 7.31708C60.746 8.00256 60.5786 8.50471 60.2758 8.82354C59.9729 9.14236 59.5983 9.30178 59.1519 9.30178C58.7374 9.30178 58.3947 9.17425 58.1237 8.91919C57.8527 8.66413 57.7172 8.32139 57.7172 7.89097C57.7172 7.23738 57.9404 6.6874 58.3867 6.24105C58.849 5.79469 59.4548 5.45992 60.204 5.23674C60.9533 5.01357 61.7663 4.90198 62.643 4.90198C64.0618 4.90198 65.1538 5.25269 65.919 5.9541C66.7001 6.63958 67.0907 7.76344 67.0907 9.32569V14.6102C67.0907 15.3276 67.4254 15.6863 68.095 15.6863H68.621L68.8362 15.8776C68.5334 16.2602 68.1986 16.5551 67.8319 16.7623C67.4812 16.9695 66.9791 17.0732 66.3255 17.0732C65.6241 17.0732 65.0661 16.9137 64.6517 16.5949C64.2531 16.2602 63.9901 15.8218 63.8626 15.2798C63.3843 15.7899 62.8901 16.2283 62.38 16.5949C61.8858 16.9456 61.2402 17.121 60.4432 17.121ZM61.9018 15.6624C62.2206 15.6624 62.5155 15.5906 62.7865 15.4471C63.0735 15.2877 63.4082 15.0486 63.7908 14.7298V10.7126C63.6314 10.7445 63.472 10.7763 63.3126 10.8082C63.1532 10.8401 62.9698 10.872 62.7626 10.9039C62.0293 11.0952 61.4395 11.422 60.9931 11.8843C60.5627 12.3306 60.3475 12.9364 60.3475 13.7016C60.3475 14.3552 60.4989 14.8493 60.8018 15.1841C61.1047 15.5029 61.4714 15.6624 61.9018 15.6624Z" fill="white"/>
<path d="M51.2065 17.121C50.1225 17.121 49.1341 16.8898 48.2414 16.4275C47.3646 15.9493 46.6632 15.2638 46.1371 14.3711C45.627 13.4625 45.372 12.3545 45.372 11.0473C45.372 9.7561 45.6509 8.65615 46.2089 7.7475C46.7828 6.8229 47.54 6.12149 48.4805 5.64325C49.437 5.14907 50.4811 4.90198 51.613 4.90198C52.5376 4.90198 53.3187 5.05342 53.9564 5.3563C54.594 5.65919 55.0802 6.05772 55.415 6.5519C55.7497 7.03014 55.9171 7.53229 55.9171 8.05836C55.9171 8.50471 55.7816 8.85542 55.5106 9.11048C55.2396 9.3496 54.8889 9.46916 54.4585 9.46916C53.9962 9.46916 53.6216 9.30178 53.3346 8.96701C53.0477 8.63224 52.8803 8.19386 52.8325 7.65185C52.8165 7.30114 52.8245 7.00623 52.8564 6.76711C52.8883 6.51205 52.8883 6.25699 52.8564 6.00193C52.7926 5.73093 52.689 5.55557 52.5455 5.47586C52.418 5.38022 52.2347 5.33239 51.9956 5.33239C51.0232 5.33239 50.2659 5.75484 49.7239 6.59973C49.1979 7.44462 48.9348 8.79166 48.9348 10.6408C48.9348 12.2509 49.2298 13.4864 49.8196 14.3472C50.4254 15.1921 51.35 15.6145 52.5934 15.6145C53.3426 15.6145 53.9484 15.479 54.4107 15.208C54.873 14.937 55.3193 14.5305 55.7497 13.9885L55.9889 14.1798C55.5903 15.1203 54.9766 15.8457 54.1476 16.3558C53.3187 16.8659 52.3383 17.121 51.2065 17.121Z" fill="white"/>
<path d="M41.4439 3.65854C40.9019 3.65854 40.4396 3.49116 40.057 3.15639C39.6904 2.80568 39.507 2.3673 39.507 1.84123C39.507 1.29923 39.6904 0.860844 40.057 0.526077C40.4396 0.191309 40.9019 0.0239258 41.4439 0.0239258C41.9859 0.0239258 42.4402 0.191309 42.8069 0.526077C43.1735 0.860844 43.3568 1.29923 43.3568 1.84123C43.3568 2.3673 43.1735 2.80568 42.8069 3.15639C42.4402 3.49116 41.9859 3.65854 41.4439 3.65854ZM38.6223 16.7623V16.5232L38.957 16.4275C39.2759 16.3319 39.4911 16.1884 39.6027 15.9971C39.7302 15.8058 39.794 15.5507 39.794 15.2319V7.74748C39.794 7.41272 39.7302 7.16563 39.6027 7.00621C39.4911 6.83086 39.2759 6.7113 38.957 6.64753L38.6223 6.5758V6.33668L42.9982 4.92587L43.2373 5.16499L43.1656 8.56049V15.2558C43.1656 15.5747 43.2213 15.8297 43.3329 16.021C43.4605 16.2123 43.6757 16.3558 43.9786 16.4514L44.2177 16.5232V16.7623H38.6223Z" fill="white"/>
<path d="M24.7505 16.7623V16.5232L25.0852 16.4275C25.6432 16.2681 25.9221 15.8776 25.9221 15.2558V7.77141C25.9221 7.4207 25.8663 7.16564 25.7548 7.00623C25.6432 6.83087 25.428 6.71132 25.1091 6.64755L24.7505 6.5519V6.31278L28.8394 4.92589L29.0785 5.16501L29.2698 6.59973C29.8278 6.10555 30.4574 5.69904 31.1589 5.38022C31.8603 5.06139 32.5537 4.90198 33.2392 4.90198C34.2913 4.90198 35.0964 5.18892 35.6543 5.76281C36.2282 6.33669 36.5151 7.21347 36.5151 8.39312V15.2798C36.5151 15.9015 36.818 16.292 37.4238 16.4514L37.639 16.5232V16.7623H31.9958V16.5232L32.3066 16.4275C32.8646 16.2522 33.1436 15.8616 33.1436 15.2558V7.62794C33.1436 6.6077 32.6334 6.09758 31.6132 6.09758C30.9118 6.09758 30.1466 6.44828 29.3176 7.1497V15.2798C29.3176 15.9015 29.5966 16.292 30.1546 16.4514L30.3698 16.5232V16.7623H24.7505Z" fill="white"/>
<path d="M20.918 3.65854C20.376 3.65854 19.9137 3.49116 19.5312 3.15639C19.1645 2.80568 18.9812 2.3673 18.9812 1.84123C18.9812 1.29923 19.1645 0.860844 19.5312 0.526077C19.9137 0.191309 20.376 0.0239258 20.918 0.0239258C21.46 0.0239258 21.9144 0.191309 22.281 0.526077C22.6477 0.860844 22.831 1.29923 22.831 1.84123C22.831 2.3673 22.6477 2.80568 22.281 3.15639C21.9144 3.49116 21.46 3.65854 20.918 3.65854ZM18.0964 16.7623V16.5232L18.4312 16.4275C18.75 16.3319 18.9652 16.1884 19.0768 15.9971C19.2044 15.8058 19.2681 15.5507 19.2681 15.2319V7.74748C19.2681 7.41272 19.2044 7.16563 19.0768 7.00621C18.9652 6.83086 18.75 6.7113 18.4312 6.64753L18.0964 6.5758V6.33668L22.4723 4.92587L22.7114 5.16499L22.6397 8.56049V15.2558C22.6397 15.5747 22.6955 15.8297 22.8071 16.021C22.9346 16.2123 23.1498 16.3558 23.4527 16.4514L23.6918 16.5232V16.7623H18.0964Z" fill="white"/>
<path d="M11.2782 16.7623V16.5232L11.5651 16.4275C12.139 16.2362 12.426 15.8377 12.426 15.2319V2.43902C12.426 2.12019 12.3622 1.88107 12.2347 1.72166C12.1071 1.54631 11.884 1.41878 11.5651 1.33907L11.2543 1.26733V1.02821L15.6302 0L15.9171 0.215207L15.8215 3.56288V11.7408C15.8215 12.3306 15.8215 12.9204 15.8215 13.5102C15.8374 14.0841 15.8454 14.658 15.8454 15.2319C15.8454 15.5507 15.9091 15.8138 16.0367 16.021C16.1642 16.2123 16.3794 16.3558 16.6823 16.4514L16.9931 16.5232V16.7623H11.2782Z" fill="white"/>
<path d="M5.83451 17.121C4.75051 17.121 3.76215 16.8898 2.86943 16.4275C1.99266 15.9493 1.29124 15.2638 0.765182 14.3711C0.255061 13.4625 0 12.3545 0 11.0473C0 9.7561 0.278973 8.65615 0.836918 7.7475C1.4108 6.8229 2.16802 6.12149 3.10855 5.64325C4.06503 5.14907 5.10919 4.90198 6.24102 4.90198C7.16561 4.90198 7.94674 5.05342 8.58439 5.3563C9.22204 5.65919 9.70825 6.05772 10.043 6.5519C10.3778 7.03014 10.5452 7.53229 10.5452 8.05836C10.5452 8.50471 10.4097 8.85542 10.1387 9.11048C9.86766 9.3496 9.51695 9.46916 9.08654 9.46916C8.62424 9.46916 8.24962 9.30178 7.96268 8.96701C7.67573 8.63224 7.50835 8.19386 7.46053 7.65185C7.44459 7.30114 7.45256 7.00623 7.48444 6.76711C7.51632 6.51205 7.51632 6.25699 7.48444 6.00193C7.42067 5.73093 7.31705 5.55557 7.17358 5.47586C7.04605 5.38022 6.86273 5.33239 6.62361 5.33239C5.65119 5.33239 4.89398 5.75484 4.35197 6.59973C3.82591 7.44462 3.56288 8.79166 3.56288 10.6408C3.56288 12.2509 3.85779 13.4864 4.44762 14.3472C5.05339 15.1921 5.97799 15.6145 7.22141 15.6145C7.97065 15.6145 8.57642 15.479 9.03871 15.208C9.50101 14.937 9.94737 14.5305 10.3778 13.9885L10.6169 14.1798C10.2184 15.1203 9.60463 15.8457 8.77568 16.3558C7.94674 16.8659 6.96635 17.121 5.83451 17.121Z" fill="white"/>
<path d="M104.522 16.9536L104.211 16.6905L106.363 6.33667C106.475 5.77872 106.587 5.22874 106.698 4.68674C106.81 4.14474 106.913 3.59476 107.009 3.03682C107.105 2.36728 106.85 1.9289 106.244 1.72166L105.837 1.55428L105.885 1.33907L110.476 0L110.644 0.167384L108.253 11.6451C108.045 12.6175 107.862 13.5023 107.703 14.2993C107.559 15.0805 107.416 15.9014 107.272 16.7623L104.522 16.9536ZM111.002 16.7623C110.779 16.5391 110.572 16.1964 110.381 15.7341C110.189 15.2718 110.006 14.8174 109.831 14.3711L108.492 10.6886L114.446 5.04542C114.876 5.06136 115.243 5.19686 115.546 5.45192C115.849 5.70698 116 6.06566 116 6.52796C116 6.94243 115.833 7.29314 115.498 7.58009C115.163 7.85109 114.733 8.11412 114.207 8.36918L109.448 10.6169L113.728 15.5428C113.904 15.7341 114.063 15.8935 114.207 16.021C114.35 16.1485 114.525 16.2761 114.733 16.4036L114.924 16.5232L114.876 16.7623H111.002Z" fill="white"/>
<path d="M98.411 17.121C97.2314 17.121 96.2669 16.7224 95.5177 15.9254C94.7684 15.1283 94.3938 14.0124 94.3938 12.5777C94.3938 11.5575 94.5692 10.593 94.9199 9.68437C95.2706 8.75977 95.7568 7.9388 96.3785 7.22144C97.0162 6.50408 97.7415 5.93816 98.5545 5.52369C99.3834 5.10921 100.268 4.90198 101.209 4.90198C101.767 4.90198 102.285 4.98966 102.763 5.16501C103.257 5.34036 103.648 5.58745 103.935 5.90628C104.238 6.22511 104.381 6.59973 104.365 7.03014C104.349 7.46056 104.214 7.80329 103.959 8.05836C103.704 8.29747 103.369 8.41703 102.954 8.41703C102.508 8.41703 102.149 8.28153 101.878 8.01053C101.607 7.73953 101.392 7.42867 101.233 7.07796L101.089 6.67146C100.866 6.1454 100.667 5.83454 100.491 5.7389C100.332 5.62731 100.053 5.7389 99.6544 6.07366C99.224 6.44031 98.8175 6.93449 98.4349 7.5562C98.0683 8.17791 97.7734 8.86339 97.5502 9.61263C97.327 10.3619 97.2154 11.1271 97.2154 11.9082C97.2154 13.1038 97.4705 13.9885 97.9806 14.5624C98.5067 15.1203 99.2081 15.3993 100.085 15.3993C100.659 15.3993 101.225 15.216 101.783 14.8493C102.341 14.4827 102.859 13.9726 103.337 13.319L103.672 13.5581C103.337 14.1798 102.906 14.7617 102.38 15.3037C101.854 15.8457 101.249 16.2841 100.563 16.6188C99.8936 16.9536 99.1762 17.121 98.411 17.121Z" fill="white"/>
<path d="M91.5446 3.56289C91.0982 3.56289 90.7077 3.41942 90.3729 3.13248C90.0541 2.82959 89.8947 2.43106 89.8947 1.93688C89.8947 1.37894 90.086 0.92461 90.4686 0.573901C90.8671 0.207251 91.3135 0.0239258 91.8076 0.0239258C92.2859 0.0239258 92.6764 0.175368 92.9793 0.478252C93.2822 0.781137 93.4336 1.1717 93.4336 1.64994C93.4336 2.19194 93.2424 2.64627 92.8598 3.01292C92.4772 3.37957 92.0388 3.56289 91.5446 3.56289ZM89.3208 17.121C88.8266 17.121 88.4201 16.9934 88.1013 16.7384C87.7825 16.4833 87.623 16.1087 87.623 15.6145C87.623 15.3276 87.6549 14.9848 87.7187 14.5863C87.7825 14.1878 87.8542 13.7892 87.9339 13.3907L89.0578 8.01052C89.2012 7.35692 88.9701 6.89463 88.3643 6.62362L87.9817 6.43233L88.0056 6.1693L92.5011 4.87805L92.7402 5.09326L90.8751 13.7494C90.8113 14.0363 90.7635 14.2834 90.7316 14.4907C90.6997 14.6819 90.6838 14.8732 90.6838 15.0645C90.6838 15.4152 90.8432 15.5906 91.162 15.5906C91.4011 15.5906 91.6403 15.5189 91.8794 15.3754C92.1185 15.216 92.4214 14.9609 92.788 14.6102L93.0032 14.8254C92.6047 15.4152 92.0946 15.9493 91.4729 16.4275C90.8671 16.8898 90.1497 17.121 89.3208 17.121Z" fill="white"/>
<path d="M82.5921 17.121C82.066 17.121 81.6436 16.9855 81.3247 16.7144C81.0218 16.4434 80.8704 16.0529 80.8704 15.5428C80.8704 15.2558 80.9023 14.9131 80.966 14.5146C81.0298 14.1001 81.1255 13.574 81.253 12.9364L82.616 6.33667C82.7435 5.7309 82.8471 5.18092 82.9268 4.68674C83.0225 4.19256 83.1261 3.63462 83.2377 3.0129C83.3493 2.37525 83.0942 1.94484 82.4725 1.72166L82.066 1.57819L82.1138 1.33907L86.8006 0L86.944 0.167384L84.0029 14.0363C83.955 14.2754 83.9152 14.4906 83.8833 14.6819C83.8514 14.8573 83.8355 15.0087 83.8355 15.1363C83.8355 15.487 83.9869 15.6623 84.2898 15.6623C84.6883 15.6623 85.2702 15.3036 86.0354 14.5863L86.2745 14.7776C85.876 15.3674 85.3738 15.9094 84.768 16.4036C84.1623 16.8818 83.4369 17.121 82.5921 17.121Z" fill="white"/>
<path d="M74.6159 17.121C73.4362 17.121 72.4718 16.7224 71.7225 15.9254C70.9733 15.1283 70.5987 14.0124 70.5987 12.5777C70.5987 11.5575 70.774 10.593 71.1247 9.68437C71.4754 8.75977 71.9616 7.9388 72.5834 7.22144C73.221 6.50408 73.9463 5.93816 74.7593 5.52369C75.5883 5.10921 76.473 4.90198 77.4136 4.90198C77.9715 4.90198 78.4896 4.98966 78.9678 5.16501C79.462 5.34036 79.8526 5.58745 80.1395 5.90628C80.4424 6.22511 80.5859 6.59973 80.5699 7.03014C80.554 7.46056 80.4185 7.80329 80.1634 8.05836C79.9084 8.29747 79.5736 8.41703 79.1591 8.41703C78.7128 8.41703 78.3541 8.28153 78.0831 8.01053C77.8121 7.73953 77.5969 7.42867 77.4375 7.07796L77.294 6.67146C77.0708 6.1454 76.8716 5.83454 76.6962 5.7389C76.5368 5.62731 76.2578 5.7389 75.8593 6.07366C75.4289 6.44031 75.0224 6.93449 74.6398 7.5562C74.2731 8.17791 73.9782 8.86339 73.755 9.61263C73.5319 10.3619 73.4203 11.1271 73.4203 11.9082C73.4203 13.1038 73.6753 13.9885 74.1855 14.5624C74.7115 15.1203 75.4129 15.3993 76.2897 15.3993C76.8636 15.3993 77.4295 15.216 77.9875 14.8493C78.5454 14.4827 79.0635 13.9726 79.5417 13.319L79.8765 13.5581C79.5417 14.1798 79.1113 14.7617 78.5853 15.3037C78.0592 15.8457 77.4534 16.2841 76.7679 16.6188C76.0984 16.9536 75.3811 17.121 74.6159 17.121Z" fill="white"/>
</svg>
